<?xml version="1.0" encoding="UTF-8"?>
<svg id="Layer_1" data-name="Layer 1" xmlns="http://www.w3.org/2000/svg" version="1.1" viewBox="0 0 24 24">
  <defs>
    <style>
      .cls-1 {
        fill: #2d2827;
        stroke-width: 0px;
      }
    </style>
  </defs>
  <path class="cls-1" d="M7.3,18.3c-.8-1.2-.8-2.5-.8-3.8,1.7,1,3.3,2,4.2,3.2l.3.6v-2.3c-1.5-.9-2.9-1.8-3.7-2.9-.8-1.2-.8-2.5-.8-3.8,1.7,1,3.3,2,4.2,3.2l.3.6v-2.3c-1.5-.9-2.9-1.8-3.7-2.9-.8-1.2-.8-2.5-.8-3.8,1.7,1,3.3,2,4.2,3.2.1.1.2.3.3.4-.2-.6-.3-1.2-.3-1.8,0-1.5.7-3.1,1.3-4.6.7,1.5,1.4,3,1.4,4.5,0,.6-.1,1.3-.3,1.9,0-.1.2-.3.3-.4.8-1.2,2.5-2.2,4.2-3.2,0,1.3,0,2.7-.8,3.8-.8,1.1-2.2,2-3.7,2.9v2.3l.3-.6c.8-1.2,2.5-2.2,4.2-3.2,0,1.3,0,2.7-.8,3.8-.8,1.1-2.2,2-3.7,2.9v2.3l.3-.6c.8-1.2,2.5-2.2,4.2-3.2,0,1.3,0,2.7-.8,3.8-.8,1-2.2,2-3.7,2.9v1.8h-2v-1.8c-1.5-.9-2.9-1.8-3.7-2.9Z"/>
</svg>