<?xml version="1.0" encoding="UTF-8"?>
<svg id="Layer_1" data-name="Layer 1" xmlns="http://www.w3.org/2000/svg" version="1.1" viewBox="0 0 24 24">
  <defs>
    <style>
      .cls-1 {
        fill: #2d2827;
        stroke-width: 0px;
      }
    </style>
  </defs>
  <path class="cls-1" d="M10,21h4c0,1.1-.9,2-2,2s-2-.9-2-2M21,19v1H3v-1l2-2v-6c0-3.1,2-5.8,5-6.7v-.3c0-1.1.9-2,2-2s2,.9,2,2v.3c3,.9,5,3.6,5,6.7v6l2,2M17,11c0-2.8-2.2-5-5-5s-5,2.2-5,5v7h10v-7M19.8,3.2l-1.4,1.4c1.7,1.7,2.7,4,2.7,6.4h2c0-2.9-1.2-5.8-3.2-7.8M1,11h2c0-2.4,1-4.7,2.7-6.4l-1.4-1.4c-2.1,2.1-3.2,4.9-3.2,7.8Z"/>
</svg>