<?xml version="1.0" encoding="UTF-8"?>
<svg id="Layer_1" data-name="Layer 1" xmlns="http://www.w3.org/2000/svg" version="1.1" viewBox="0 0 24 24">
  <defs>
    <style>
      .cls-1 {
        fill: #2d2827;
        stroke-width: 0px;
      }
    </style>
  </defs>
  <path class="cls-1" d="M23.5,17l-5,5-3.5-3.5,1.5-1.5,2,2,3.5-3.5,1.5,1.5M12,9c1.7,0,3,1.3,3,3s-1.3,3-3,3-3-1.3-3-3,1.3-3,3-3M12,17c.5,0,1,0,1.4-.2-.3.7-.4,1.4-.4,2.2v.5h-1c-5,0-9.3-3.1-11-7.5,1.7-4.4,6-7.5,11-7.5s9.3,3.1,11,7.5c-.2.6-.6,1.3-.9,1.9-.9-.5-2-.9-3.1-.9s-1.5.1-2.2.4c.1-.4.2-.9.2-1.4,0-2.8-2.2-5-5-5s-5,2.2-5,5,2.2,5,5,5Z"/>
</svg>