<?xml version="1.0" encoding="UTF-8"?>
<svg id="Layer_1" data-name="Layer 1" xmlns="http://www.w3.org/2000/svg" viewBox="0 0 581.11 117.82">
  <defs>
    <style>
      .cls-1 {
        fill: #e0d9d3;
      }

      .cls-1, .cls-2, .cls-3 {
        stroke-width: 0px;
      }

      .cls-2 {
        fill: #6eb164;
      }

      .cls-3 {
        fill: #2d2827;
      }
    </style>
  </defs>
  <g>
    <path class="cls-2" d="M48.17,36.06s-1.14-12.82,11.93-25.74"/>
    <path class="cls-3" d="M41.99,36.6c-1.79-12.21,3.11-24.43,10.5-33.97,0,0,15.2,15.38,15.2,15.38-6.11,4.04-11.37,9.93-13.2,17.17,0,0-.07.26-.07.26-.02.05-.04.21-.07.07l-12.35,1.1h0Z"/>
  </g>
  <g>
    <path class="cls-1" d="M125.57,49.17c-.78-5.76-4.73-9.19-11.9-9.19-6,0-9.84,2.82-9.84,6.6s3.45,5,8.2,6.16l10.8,2.68c10.73,2.73,22.39,5.62,22.39,21.78,0,14.95-13.65,21.17-29.63,21.17-16.82,0-30.16-7.82-31.66-22.83l17.98-1.82c.68,7.95,6.55,11.24,13.87,11.24,6.16,0,10.89-2.49,10.89-7.06s-3.5-5.87-10.14-7.59l-9.83-2.58c-9.89-2.62-20.72-5.75-20.72-19.96s12.36-20.92,28.42-20.92,26.39,7.34,28.64,21.18l-17.45,1.14Z"/>
    <path class="cls-1" d="M201.5,71.46c0,16.61-10.1,26.6-27.31,26.6s-27.34-9.99-27.34-26.6,10.03-26.74,27.34-26.74,27.31,10.06,27.31,26.74ZM184.14,71.46c0-10.37-3.9-14.53-9.95-14.53s-9.98,4.16-9.98,14.53,3.9,14.39,9.98,14.39,9.95-4.02,9.95-14.39Z"/>
    <path class="cls-1" d="M220.78,52.83c2.96-4.13,7.93-8.11,16.35-8.11,10.35,0,17.79,5.92,17.79,18.84v33.28h-17.03v-29.34c0-6.79-2.82-9.32-7.8-9.32s-9,3.43-9,11.2v27.46h-17.03v-50.9h16.35v6.89h.38Z"/>
    <path class="cls-1" d="M310.81,92.73c0,17.38-11.79,22.96-26.86,22.96-13.05,0-23.47-4.77-26.64-17.14l17.06-1.18c1.43,4.33,4.43,6.37,9.57,6.37,5.65,0,9.83-2.93,9.83-11.28v-4.89h-.38c-3.1,4.43-7.93,6.65-15.15,6.65-11.82,0-21.01-9.29-21.01-24.82s9.19-24.68,21.49-24.68c6.03,0,11.91,1.69,15.36,7.59h.38v-6.38h16.35v46.8ZM294.59,69.4c0-7.63-4.01-12.13-9.98-12.13s-10.01,4.5-10.01,12.13,3.94,12.39,10.01,12.39,9.98-4.59,9.98-12.39Z"/>
    <path class="cls-1" d="M380.29,72.24c-2.47,14.44-14.34,26.13-32.68,26.13-20.05,0-34.32-12.95-34.32-35.79s14.27-35.73,34.32-35.73c17.51,0,29.1,10.88,32.06,22.75l-18.21,2.23c-1.83-5.95-6.65-10.57-13.85-10.57-8.08,0-15.77,5.58-15.77,21.32s7.69,21.37,15.77,21.37,12.73-5.26,14.26-13.35l18.42,1.63Z"/>
    <path class="cls-1" d="M398.81,53.93h.38c2.91-5.69,7.84-9.21,15.58-9.21.98,0,1.94.12,2.57.34v15.68c-1.13-.12-3.55-.38-5.61-.38-7,0-12.23,2.75-12.23,12.24v24.24h-17.03v-50.9h16.35v7.99Z"/>
    <path class="cls-1" d="M454.66,89.94c-2.96,4.13-7.93,8.11-16.35,8.11-10.35,0-17.79-5.92-17.79-18.84v-33.28h17.03v29.34c0,6.79,2.82,9.32,7.8,9.32s9-3.43,9-11.2v-27.46h17.03v50.9h-16.35v-6.89h-.38Z"/>
    <path class="cls-1" d="M507.31,61.5c-.68-4.01-3.72-6.44-8.12-6.44-3.84,0-6.73,1.62-6.73,4.65s2.96,3.87,7.98,4.69l5.4.84c9.49,1.53,18.91,4.29,18.91,16.16s-10.89,16.65-25.21,16.65-23.9-5.51-25.63-16.1l16.1-1.64c.8,4.84,4.22,7.35,9.65,7.35,4.79,0,7.73-2.07,7.73-5.42,0-2.64-3.16-4.07-8.47-4.92l-6.05-.93c-8.42-1.27-17.35-4.37-17.35-15.61s11.5-16.06,23.5-16.06,22.23,5.15,24.06,15.28l-15.76,1.5Z"/>
    <path class="cls-1" d="M544.35,52.83c3.06-4.13,7.93-8.11,16.02-8.11,10,0,17.43,5.92,17.43,18.84v33.28h-17.03v-29.34c0-6.79-2.82-9.32-7.8-9.32s-9,3.7-9,11.46v27.19h-17.03V27.42h17.03v25.41h.38Z"/>
  </g>
  <circle class="cls-3" cx="39.79" cy="62.53" r="38.58"/>
  <circle class="cls-1" cx="39.79" cy="62.53" r="11.54"/>
</svg>